<?xml version="1.0" encoding="UTF-8" standalone="no"?>
<svg
xmlns="http://www.w3.org/2000/svg"
version="1.0"
width="644.925" height="286.616"
>
<rect width="100%" height="100%" fill="white"/>
<path fill="rgb(85.68,96.9,72.93)" d="M615,138l29,-4 -4,7 -7,8 -3,0 0,1 -1,0 -1,1 0,1 -2,2 -2,3 -4,10 0,1 -6,21 0,1 -4,1 -7,-1 0,-1 1,-1 1,-4 -4,-2 -8,0 0,-1 1,-4 1,-2 8,-14 4,-4 1,-2 1,0 2,-4 0,-1 1,-7Z">
<title>Accomack</title></path>
<path fill="rgb(81.345,90.015,83.63999999999999)" d="M593,182l8,0 4,2 -1,4 -1,1 0,1 7,1 4,-1 0,2 -9,24 -1,2 -1,1 -5,5 -1,1 -5,-1 -3,-8 -2,-5 0,-3 1,-3 0,-1 2,-10 2,-7 0,-2Z">
<title>Northampton</title></path>
<path fill="rgb(80.325,109.14,66.3)" d="M134,186l3,2 -1,1 -4,2 0,2 5,10 5,7 1,1 8,4 -2,4 -9,4 -2,1 -7,2 -1,1 -1,1 0,1 -1,3 0,1 -4,1 -5,0 -12,-26Z">
<title>Buchanan</title></path>
<path fill="rgb(85.16999999999999,104.55,65.535)" d="M180,206l10,11 -3,6 -11,11 -3,4 -6,1 -4,1 -10,2 -6,1 -9,-19 2,-1 9,-4 2,-4 4,4 10,0 3,-3 8,-5Z">
<title>Tazewell</title></path>
<path fill="rgb(84.405,102.0,68.08500000000001)" d="M178,244l8,19 -26,11 -1,1 -6,-16 -10,-14 4,-2 6,-1 10,-2 4,-1 6,-1Z">
<title>Smyth</title></path>
<path fill="rgb(92.565,96.9,65.79)" d="M118,277l-8,0 5,-7 3,-1 2,0 1,1 1,2 -1,2Z">
<title>Bristol.City</title></path>
<path fill="rgb(82.365,103.275,69.36)" d="M143,245l10,14 6,16 1,-1 -4,3 -14,-1 -7,0 -1,2 -16,-1 3,-3 1,-2 -1,-2 -1,-1 -2,0 -3,1 -5,7 -4,0 -2,-11 17,-11 12,-4Z">
<title>Washington</title></path>
<path fill="rgb(83.895,106.845,64.005)" d="M138,224l9,19 -4,2 -10,6 -12,4 -17,11 -5,-17 6,-9 14,-6 5,0 4,-1 0,-1 1,-3 0,-1 1,-1 1,-1Z">
<title>Russell</title></path>
<path fill="rgb(94.86000000000001,100.21499999999999,59.925)" d="M83,238l2,1 0,3 -2,3 -3,0 -2,-2 1,-2 1,-2 2,-1Z">
<title>Norton.City</title></path>
<path fill="rgb(96.38999999999999,101.74499999999999,57.375)" d="M88,217l1,8 4,8 1,2 8,7 1,-1 2,-1 -6,9 -11,-1 -6,0 -1,1 -9,4 -1,2 -1,1 -8,-10 1,-7 24,-21zM83,238l-1,0 -2,1 -1,2 -1,2 2,2 3,0 2,-3 0,-3 -2,-1Z">
<title>Wise</title></path>
<path fill="rgb(85.42500000000001,102.51,67.065)" d="M107,208l12,26 -14,6 -2,1 -1,1 -8,-7 -1,-2 -4,-8 -1,-8 4,-1 12,-5Z">
<title>Dickenson</title></path>
<path fill="rgb(80.325,102.51,71.91)" d="M70,256l1,-1 1,-2 9,-4 1,-1 6,0 11,1 5,17 2,11 -24,-1 -17,0 -12,-1 3,-8 4,-2Z">
<title>Scott</title></path>
<path fill="rgb(82.62,109.90499999999999,61.964999999999996)" d="M70,256l-10,9 -4,2 -3,8 -37,-2 -16,-1 17,-5 8,-3 18,-6 17,-10 2,-2Z">
<title>Lee</title></path>
<path fill="rgb(74.97,111.68999999999998,68.59499999999998)" d="M190,217l19,-6 9,15 -4,7 -10,2 -7,2 -7,-2 -5,3 -7,6 -5,-6 3,-4 11,-11Z">
<title>Bland</title></path>
<path fill="rgb(77.265,101.74499999999999,76.24499999999999)" d="M203,259l7,11 0,1 -1,2 0,1 1,1 1,2 3,0 0,-2 5,8 -5,0 -35,-2 -25,-2 2,-2 4,-3 26,-11Z">
<title>Grayson</title></path>
<path fill="rgb(83.13000000000001,98.175,73.695)" d="M210,270l1,0 1,-1 3,0 2,1 -1,2 -2,2 0,3 -3,0 -1,-2 -1,-1 0,-1 1,-2Z">
<title>Galax.City</title></path>
<path fill="rgb(83.63999999999999,103.78500000000001,67.83)" d="M227,252l-24,7 -17,4 -8,-19 7,-6 5,-3 7,2 7,-2 10,-2Z">
<title>Wythe</title></path>
<path fill="rgb(85.42500000000001,100.46999999999998,69.105)" d="M218,198l7,6 10,-6 1,0 9,-5 3,6 3,11 -14,6 -19,10 -9,-15 9,-13Z">
<title>Giles</title></path>
<path fill="rgb(165.75,59.669999999999995,29.325000000000003)" d="M239,232l0,1 -1,-2 -1,-2 0,-1 1,-1 1,-1 2,-1 4,0 1,2 -1,1 -4,3Z">
<title>Radford.City</title></path>
<path fill="rgb(79.815,105.57,69.105)" d="M237,216l5,9 -1,0 -2,1 -1,1 -1,1 0,1 1,2 1,2 0,-1 3,10 -7,5 -8,5 -13,-19 4,-7Z">
<title>Pulaski</title></path>
<path fill="rgb(96.135,112.455,46.665)" d="M497,57l-5,2 -2,-4 3,-2 0,1Z">
<title>Falls_Church.City</title></path>
<path fill="rgb(101.49,118.575,34.934999999999995)" d="M500,50l2,3 3,2 2,4 -6,0 -1,1 -3,-3 -4,-3 0,-1Z">
<title>Arlington</title></path>
<path fill="rgb(79.815,102.51,72.41999999999999)" d="M235,247l13,22 -4,5 -1,1 -2,0 -2,-2 -2,0 -1,4 -1,2 1,4 -17,0 -5,-8 0,-1 2,-2 1,-2 -2,-1 -3,0 -1,1 -1,0 -7,-11 24,-7Z">
<title>Carroll</title></path>
<path fill="rgb(82.62000000000002,100.47000000000001,71.4)" d="M305,285l-26,0 0,-11 -1,-1 -1,-1 -1,-4 0,-6 1,-1 3,0 6,-3 13,3 4,-1 8,-5zM292,268l-2,4 1,1 4,3 2,0 1,-2 -1,-5 -4,-1Z">
<title>Henry</title></path>
<path fill="rgb(73.18499999999999,103.02,79.05)" d="M265,253l15,8 -3,0 -1,1 0,6 1,4 1,1 1,1 0,11 -30,-1 -13,-1 -1,-4 1,-2 1,-4 2,0 2,2 2,0 1,-1 4,-5Z">
<title>Patrick</title></path>
<path fill="rgb(80.83500000000001,99.705,74.20500000000001)" d="M274,229l-9,24 -17,16 -13,-22 7,-5 5,-1 6,-1 4,-2 5,-5 8,-3Z">
<title>Floyd</title></path>
<path fill="rgb(135.915,79.56000000000002,39.269999999999996)" d="M264,207l1,6 4,5 1,10 0,2 -8,3 -5,5 -4,2 -6,1 -5,1 -3,-10 2,-1 4,-3 1,-1 -1,-2 -3,0 -5,-9 14,-6Z">
<title>Montgomery</title></path>
<path fill="rgb(98.42999999999999,95.88,60.690000000000005)" d="M282,210l0,1 -1,4 1,1 -5,-1 0,-5Z">
<title>Salem.City</title></path>
<path fill="rgb(85.16999999999999,98.175,71.145)" d="M295,219l20,18 -4,18 -8,5 -4,1 -13,-3 -6,3 -15,-8 9,-24 7,-5 4,3 2,0 3,-2Z">
<title>Franklin</title></path>
<path fill="rgb(85.67999999999999,102.76499999999999,66.3)" d="M278,200l17,11 0,8 -5,6 -3,2 -2,0 -4,-3 -7,5 -4,1 0,-2 -1,-10 -4,-5 -1,-6 1,-1 3,-2 5,-1zM282,210l-5,0 0,5 5,1 0,1 5,3 1,0 1,-1 2,-2 2,-5 0,-1 -2,-1 -5,-2 -3,2Z">
<title>Roanoke</title></path>
<path fill="rgb(84.405,104.55,66.045)" d="M327,181l19,14 -6,1 0,10 -14,29 -11,2 -20,-18 0,-8 5,-4 0,-6 7,-7 3,0 1,1 1,1 3,1 1,0 4,-6 2,-2zM318,206l-1,0 0,2 1,2 1,1 3,0 2,-4 -2,-2 -3,0Z">
<title>Bedford</title></path>
<path fill="rgb(80.325,96.645,78.03)" d="M280,148l4,-1 5,1 3,5 1,1 14,5 4,-3 -2,10 -11,-3 -2,2 -1,1 -1,2 -3,3 -7,6 -2,1 -1,-1 -8,6 -5,-2 -1,-2 -6,-6zM283,162l-1,5 1,1 1,1 3,-2 0,-5 -2,-1Z">
<title>Alleghany</title></path>
<path fill="rgb(77.77499999999999,106.845,70.89)" d="M282,178l-1,0 1,2 4,8 -6,10 -2,2 -5,3 -5,1 -3,2 -1,1 -13,3 -3,-11 2,-1 10,-6 -1,-4 3,-4 5,-5 1,2 5,2 8,-6Z">
<title>Craig</title></path>
<path fill="rgb(82.11,104.03999999999999,68.59499999999998)" d="M309,166l13,23 -2,2 -4,6 -1,0 -3,-1 -1,-1 -1,-1 -3,0 -7,7 0,6 -5,4 -17,-11 2,-2 6,-10 -4,-8 -1,-2 1,0 2,-1 7,-6 3,-3 1,-2 1,-1 2,-2Z">
<title>Botetourt</title></path>
<path fill="rgb(90.27,99.45,65.28)" d="M347,163l3,-1 4,3 7,8 1,3 6,12 2,0 -11,11 -5,3 -8,-7 -19,-14 1,0 1,-1 3,-2 2,-2 3,-7 1,-3 1,-1 2,-3 1,0Z">
<title>Amherst</title></path>
<path fill="rgb(77.00999999999999,97.66499999999999,80.325)" d="M323,135l11,8 12,9 2,2 -1,9 -5,-1 -1,0 -2,3 -1,1 -1,3 -3,7 -2,2 -3,2 -1,1 -1,0 -5,8 -13,-23 2,-10zM327,163l1,-2 -3,-1 -2,1 -1,1 0,3 1,1 2,0zM329,166l-1,0 0,5 1,2 1,0 1,-1 1,-1 2,-3 0,-3 -2,-1 -2,2Z">
<title>Rockbridge</title></path>
<path fill="rgb(75.48,105.315,73.94999999999999)" d="M300,117l3,3 3,2 11,2 4,2 2,9 -12,21 -4,3 -14,-5 -1,-1 -3,-5 -5,-1 -4,1 7,-11Z">
<title>Bath</title></path>
<path fill="rgb(54.06,80.07000000000001,121.38000000000001)" d="M336,103l-1,1 -6,11 0,2 -2,4 -6,5 -4,-2 -11,-2 -3,-2 -3,-3 -1,-3 0,-1 6,-6 3,-7 1,-6 2,-8 7,3 1,1 1,1 4,8Z">
<title>Highland</title></path>
<path fill="rgb(95.87999999999998,102.76499999999999,56.355000000000004)" d="M398,102l3,-5 12,19 -6,9 -22,-9Z">
<title>Greene</title></path>
<path fill="rgb(95.115,99.96000000000001,59.925)" d="M355,69l14,0 17,15 -3,9 5,4 5,4 1,0 4,1 -13,14 -6,7 -12,-10 -10,-6 -14,-10zM369,96l-2,3 -1,2 0,4 2,0 5,-3 0,-1 -1,-2Z">
<title>Rockingham</title></path>
<path fill="rgb(84.91499999999999,104.80499999999998,65.28)" d="M336,103l7,-6 14,10 10,6 12,10 -1,3 -2,4 1,4 -1,1 -1,2 -3,2 -8,10 -3,4 -6,-1 -2,0 -5,2 -2,-2 -12,-9 -11,-8 -2,-9 6,-5 2,-4 0,-2 6,-11zM357,124l-5,1 0,2 -1,1 1,2 1,1 3,0 2,-1 0,-1 1,-2 -1,-1 0,-2 -1,0zM366,133l-2,1 -2,2 0,1 3,2 3,0 1,-1 0,-5 -2,0Z">
<title>Augusta</title></path>
<path fill="rgb(81.855,89.76,83.63999999999999)" d="M372,139l15,30 -14,18 -3,1 -2,0 -6,-12 -1,-3 -7,-8 -4,-3 -3,1 1,-9 5,-2 2,0 6,1 3,-4Z">
<title>Nelson</title></path>
<path fill="rgb(87.46499999999999,108.375,59.415000000000006)" d="M418,173l-1,5 -7,14 -9,15 -10,-5 -18,-15 14,-18 2,-2 8,0 1,-1 0,-3Z">
<title>Buckingham</title></path>
<path fill="rgb(89.76,100.97999999999999,64.005)" d="M391,202l-7,14 -10,5 -15,-22 11,-11 3,-1Z">
<title>Appomattox</title></path>
<path fill="rgb(92.05499999999999,101.235,61.964999999999996)" d="M354,202l5,-3 15,22 -6,18 -15,-4 -2,-2 -10,-5 -7,0 -2,2 -6,5 14,-29 5,4Z">
<title>Campbell</title></path>
<path fill="rgb(85.68,95.625,73.44000000000001)" d="M353,235l15,4 13,6 4,12 -1,9 2,3 1,1 -6,15 -5,0 -26,1 -6,0Z">
<title>Halifax</title></path>
<path fill="rgb(82.875,103.78500000000001,68.08500000000001)" d="M326,235l6,-5 2,-2 7,0 10,5 2,2 -9,51 -10,0 3,-3 0,-1 -3,-6 -10,0 -3,2 -1,1 0,1 3,2 1,4 -3,0 -16,-1 6,-30 4,-18Z">
<title>Pittsylvania</title></path>
<path fill="rgb(91.28999999999999,94.60499999999999,69.105)" d="M292,268l1,0 4,1 1,5 -1,2 -2,0 -4,-3 -1,-1 2,-4Z">
<title>Martinsville.City</title></path>
<path fill="rgb(95.37000000000002,92.31000000000002,67.32000000000001)" d="M334,286l-10,0 -1,-4 -3,-2 0,-1 1,-1 3,-2 10,0 3,6 0,1Z">
<title>Danville.City</title></path>
<path fill="rgb(131.58,76.24499999999999,46.92)" d="M354,202l-9,8 -5,-4 0,-10 6,-1Z">
<title>Lynchburg.City</title></path>
<path fill="rgb(84.405,104.55,66.045)" d="M318,206l1,-1 3,0 2,2 -2,4 -3,0 -1,-1 -1,-2 0,-2Z">
<title>Bedford</title></path>
<path fill="rgb(98.43,102.0,54.824999999999996)" d="M282,210l1,0 3,-2 5,2 2,1 0,1 -2,5 -2,2 -1,1 -1,0 -5,-3 0,-1 -1,-1 1,-4Z">
<title>Roanoke.City</title></path>
<path fill="rgb(115.77000000000002,86.7,52.019999999999996)" d="M329,166l1,0 2,-2 2,1 0,3 -2,3 -1,1 -1,1 -1,0 -1,-2 0,-5Z">
<title>Buena_Vista.City</title></path>
<path fill="rgb(92.05499999999998,97.15499999999999,66.045)" d="M283,162l2,-1 2,1 0,5 -3,2 -1,-1 -1,-1Z">
<title>Covington.City</title></path>
<path fill="rgb(179.265,35.445,40.035000000000004)" d="M327,163l-2,3 -2,0 -1,-1 0,-3 1,-1 2,-1 3,1Z">
<title>Lexington.City</title></path>
<path fill="rgb(96.135,100.98,57.885)" d="M366,133l3,0 0,5 -1,1 -3,0 -3,-2 0,-1 2,-2 2,-1Z">
<title>Waynesboro.City</title></path>
<path fill="rgb(91.03500000000001,97.41,66.555)" d="M357,124l1,0 0,2 1,1 -1,2 0,1 -2,1 -3,0 -1,-1 -1,-2 1,-1 0,-2Z">
<title>Staunton.City</title></path>
<path fill="rgb(128.52,91.54500000000002,34.68)" d="M399,136l1,0 2,1 0,1 -1,3 -1,1 -3,1 -1,-1 -1,-1 0,-1 1,-1 1,-2Z">
<title>Charlottesville.City</title></path>
<path fill="rgb(155.04,72.165,27.794999999999998)" d="M369,96l3,3 1,2 0,1 -5,3 -2,0 0,-4 1,-2 2,-3Z">
<title>Harrisonburg.City</title></path>
<path fill="rgb(101.74499999999999,97.66499999999999,56.61)" d="M385,116l22,9 13,5 -8,12 -14,21 0,3 -1,1 -8,0 -2,2 -15,-30 3,-2 1,-2 1,-1 -1,-4 2,-4 1,-3zM399,136l-2,1 -1,2 -1,1 0,1 1,1 1,1 3,-1 1,-1 1,-3 0,-1 -2,-1Z">
<title>Albemarle</title></path>
<path fill="rgb(86.955,107.355,60.18000000000001)" d="M412,142l19,10 -7,15 -6,6 -20,-10Z">
<title>Fluvanna</title></path>
<path fill="rgb(91.28999999999999,99.705,64.005)" d="M418,173l6,-6 6,9 -4,20 -8,8 -17,3 9,-15 7,-14Z">
<title>Cumberland</title></path>
<path fill="rgb(125.205,76.755,52.785)" d="M418,204l1,7 -1,18 -15,4 -19,-17 7,-14 10,5Z">
<title>Prince_Edward</title></path>
<path fill="rgb(90.27,91.8,73.44000000000001)" d="M374,221l10,-5 19,17 -4,18 -12,19 -1,-1 -2,-3 1,-9 -4,-12 -13,-6Z">
<title>Charlotte</title></path>
<path fill="rgb(80.07000000000001,97.92,77.00999999999999)" d="M435,262l-1,23 -53,0 6,-15 12,-19Z">
<title>Mecklenburg</title></path>
<path fill="rgb(94.86000000000001,94.095,66.045)" d="M481,217l-1,-3 0,-2 2,-2 1,0 1,1 0,5 -2,0 -1,1Z">
<title>Colonial_Heights.City</title></path>
<path fill="rgb(82.365,103.275,69.36)" d="M418,229l19,9 -2,24 -36,-11 4,-18Z">
<title>Lunenburg</title></path>
<path fill="rgb(102.51,99.45,53.040000000000006)" d="M487,209l4,0 2,1 1,1 -1,2 -3,2 -2,-2Z">
<title>Hopewell.City</title></path>
<path fill="rgb(89.50499999999998,128.01,37.74)" d="M507,59l-1,5 -5,2 -4,-2 3,-4 1,-1Z">
<title>Alexandria.City</title></path>
<path fill="rgb(85.42500000000001,101.49,67.83)" d="M405,62l8,7 -4,13 -8,15 -3,5 -4,-1 -1,0 -5,-4 -5,-4 3,-9 4,-8 3,-5 3,1 3,-2Z">
<title>Page</title></path>
<path fill="rgb(86.7,102.51,66.045)" d="M411,45l-6,17 -6,8 -3,2 -3,-1 -3,5 -4,8 -17,-15 5,-9 1,-3 1,-1 4,-3 1,1 8,-5 3,-5 1,0 0,-4Z">
<title>Shenandoah</title></path>
<path fill="rgb(83.895,107.1,64.005)" d="M431,19l16,13 -10,12 -3,3 -11,-5Z">
<title>Clarke</title></path>
<path fill="rgb(106.58999999999999,96.645,51.51)" d="M420,25l2,0 3,2 -5,7 -2,-2 0,-6 1,-2Z">
<title>Winchester.City</title></path>
<path fill="rgb(96.38999999999999,106.845,52.275)" d="M408,0l8,7 15,12 -8,23 -12,3 -18,-5 3,-3 1,-1 3,-2 1,-1 2,-3 0,-1 4,-18zM420,25l-1,-1 -1,2 0,6 2,2 5,-7 -3,-2Z">
<title>Frederick</title></path>
<path fill="rgb(95.115,108.12,52.019999999999996)" d="M423,42l11,5 -10,12 -11,10 -8,-7 6,-17Z">
<title>Warren</title></path>
<path fill="rgb(75.225,96.135,83.385)" d="M413,69l11,-10 4,3 5,7 1,3 1,1 3,2 1,0 -8,7 -10,10 -4,-1 -8,-9Z">
<title>Rappahannock</title></path>
<path fill="rgb(90.27000000000001,93.58500000000001,71.145)" d="M409,82l8,9 11,21 -15,4 -12,-19Z">
<title>Madison</title></path>
<path fill="rgb(89.25,97.92,67.575)" d="M413,116l15,-4 7,-3 7,-3 4,-1 7,0 3,1 1,1 -18,24 -19,-1 -13,-5Z">
<title>Orange</title></path>
<path fill="rgb(85.935,106.58999999999999,62.730000000000004)" d="M420,130l19,1 20,10 -8,28 -10,-9 -1,-2 -6,-5 -3,-1 -19,-10Z">
<title>Louisa</title></path>
<path fill="rgb(74.71499999999999,112.455,67.83)" d="M464,171l-2,14 -4,-3 -8,-3 -10,-1 0,1 -3,0 -6,-2 -1,-1 -6,-9 7,-15 3,1 6,5 1,2 10,9Z">
<title>Goochland</title></path>
<path fill="rgb(84.405,115.26,55.080000000000005)" d="M462,185l-15,14 -1,-3 -2,-2 -2,-1 -5,0 -3,1 -3,2 -3,1 -1,0 -1,-1 4,-20 1,1 6,2 3,0 0,-1 10,1 8,3Z">
<title>Powhatan</title></path>
<path fill="rgb(85.16999999999999,105.82499999999999,64.005)" d="M426,196l1,1 1,0 3,-1 3,-2 3,-1 5,0 2,1 2,2 1,3 -1,0 0,5 9,9 0,1 1,0 1,-1 0,-1 1,-1 1,-1 3,1 1,3 -11,7 -33,-10 -1,-7Z">
<title>Amelia</title></path>
<path fill="rgb(90.27,103.275,61.199999999999996)" d="M418,229l1,-18 33,10 -7,20 -8,-3Z">
<title>Nottoway</title></path>
<path fill="rgb(88.48500000000001,101.235,65.28)" d="M437,238l8,3 18,9 1,18 -8,16 -11,0 -11,1 1,-23Z">
<title>Brunswick</title></path>
<path fill="rgb(91.28999999999999,106.33500000000001,57.375)" d="M463,214l16,4 -1,2 2,2 3,1 0,17 -17,11 -3,-1 -18,-9 7,-20Z">
<title>Dinwiddie</title></path>
<path fill="rgb(94.35,95.115,65.535)" d="M475,268l0,4 -4,2 -1,-1 -1,-3 0,-1 1,-1 3,-1 1,0Z">
<title>Emporia.City</title></path>
<path fill="rgb(80.83500000000001,121.635,53.040000000000006)" d="M481,268l11,15 -36,1 8,-16 -1,-18 3,1 5,4 6,12zM475,268l-1,-1 -1,0 -3,1 -1,1 0,1 1,3 1,1 4,-2 0,-1Z">
<title>Greensville</title></path>
<path fill="rgb(90.27,104.805,59.925)" d="M560,227l-1,-6 1,-1 0,-2 4,0 3,4 1,3Z">
<title>Poquoson.City</title></path>
<path fill="rgb(98.175,88.48500000000001,68.34)" d="M520,267l1,6 -4,0 -1,-2 -1,-3 1,-1 1,-1 1,1Z">
<title>Franklin.City</title></path>
<path fill="rgb(82.365,110.16000000000001,62.475)" d="M520,267l-2,0 -1,-1 -1,1 -1,1 1,3 1,2 5,0 -1,10 -29,0 -11,-15 36,-24 8,-5Z">
<title>Southampton</title></path>
<path fill="rgb(108.375,98.175,48.45)" d="M560,227l8,-2 3,9 -4,4 -7,1 -3,-11Z">
<title>Hampton.City</title></path>
<path fill="rgb(146.625,60.18000000000001,48.45)" d="M539,213l0,1 -2,1 -2,-1 -2,0 -1,-1 0,-5 2,-2 0,2 4,0 1,2Z">
<title>Williamsburg.City</title></path>
<path fill="rgb(116.53500000000001,96.64500000000001,42.075)" d="M544,217l13,11 3,11 -1,2 -1,0 -1,-1 -15,-14 0,-6Z">
<title>Newport_News.City</title></path>
<path fill="rgb(108.12,96.38999999999999,49.980000000000004)" d="M559,247l5,-2 5,9 -8,2 -3,-6Z">
<title>Portsmouth.City</title></path>
<path fill="rgb(100.47000000000001,105.06,49.980000000000004)" d="M534,207l5,-6 12,13 0,1 1,0 1,1 6,-1 1,0 0,5 -1,1 1,6 -3,1 -13,-11 -5,-4 0,-3 -1,-2 -4,0Z">
<title>York</title></path>
<path fill="rgb(85.17000000000002,92.82,77.00999999999999)" d="M532,192l2,4 5,5 -5,6 0,-1 -2,2 0,5 1,1 2,0 2,1 2,-1 0,-1 5,4 -2,3 -8,-3 -12,0 -2,-15Z">
<title>James_City</title></path>
<path fill="rgb(83.13000000000001,107.61000000000001,64.77)" d="M522,217l12,0 5,7 -14,15 -8,5 -1,-6 -6,-6 0,1 -2,-1 -6,-3 -1,-1 14,-14Z">
<title>Surry</title></path>
<path fill="rgb(86.445,119.08500000000001,49.46999999999999)" d="M501,228l1,1 6,3 2,1 0,-1 6,6 1,6 -36,24 -4,-1 -6,-12 -5,-4 17,-11Z">
<title>Sussex</title></path>
<path fill="rgb(96.9,114.49500000000002,43.35)" d="M491,209l1,-1 23,6 -14,14 -18,12 0,-17 3,1 2,-4 0,-2 -4,-3 3,-6 1,4 2,2 3,-2 1,-2 -1,-1 -2,-1Z">
<title>Prince_George</title></path>
<path fill="rgb(101.49,96.38999999999999,57.375)" d="M484,216l0,-1 4,3 0,2 -2,4 -3,-1 -3,-1 -2,-2 1,-2 2,-1 1,-1 2,0Z">
<title>Petersburg.City</title></path>
<path fill="rgb(99.45,106.58999999999999,48.96)" d="M464,171l7,1 10,8 4,2 8,4 2,1 4,4 -5,11 -14,-6 2,-6 1,-3 -2,-4 -2,-2 -3,0 -4,1 -5,3 -5,0Z">
<title>Henrico</title></path>
<path fill="rgb(100.97999999999999,107.61000000000001,46.41)" d="M462,185l5,0 2,5 3,6 8,0 14,6 -2,6 -1,1 -4,0 -3,6 0,-4 -1,-1 -1,0 -2,2 0,2 1,3 -2,1 -16,-4 -1,-3 -3,-1 -1,1 -1,1 0,1 -1,1 -1,0 0,-1 -9,-9 0,-5 1,0Z">
<title>Chesterfield</title></path>
<path fill="rgb(73.94999999999999,107.1,74.20500000000001)" d="M499,191l21,11 2,15 -7,-3 -23,-6 2,-6Z">
<title>Charles_City</title></path>
<path fill="rgb(86.7,111.94500000000001,56.61)" d="M503,178l5,2 15,3 5,5 4,4 -12,10 -21,-11 -4,-4Z">
<title>New_Kent</title></path>
<path fill="rgb(113.985,97.66499999999999,43.86)" d="M480,196l-8,0 -3,-6 -2,-5 5,-3 4,-1 3,0 2,2 2,4 -1,3Z">
<title>Richmond.City</title></path>
<path fill="rgb(130.305,88.48500000000001,36.209999999999994)" d="M477,114l-3,1 -4,-3 0,-2 2,-1 1,-1 2,1 1,1 1,1Z">
<title>Fredericksburg.City</title></path>
<path fill="rgb(95.88,106.07999999999998,52.785)" d="M482,57l5,0 1,1 0,3 -2,1 -3,0 -2,-2 0,-1Z">
<title>Fairfax.City</title></path>
<path fill="rgb(114.495,109.905,30.855)" d="M472,66l1,1 1,1 0,3 -4,3 -2,-1 0,-2 2,-4 2,-1Z">
<title>Manassas.City</title></path>
<path fill="rgb(106.58999999999999,118.83000000000001,29.325000000000003)" d="M454,13l3,1 17,9 -4,4 0,1 -1,1 0,3 1,1 4,4 3,1 7,0 -15,21 -9,-9 -23,-6 10,-12Z">
<title>Loudoun</title></path>
<path fill="rgb(94.35,105.82499999999999,54.824999999999996)" d="M437,44l23,6 -5,10 1,1 12,23 2,4 -8,14 -7,-1 -2,0 0,-1 -5,-9 -3,-8 -6,-8 -1,0 -3,-2 -1,-1 -1,-3 -5,-7 -4,-3 10,-12Z">
<title>Fauquier</title></path>
<path fill="rgb(100.21499999999999,106.08000000000001,49.215)" d="M439,75l6,8 3,8 5,9 0,1 2,0 7,1 2,4 -7,1 -1,-1 -3,-1 -7,0 -4,1 -7,3 -7,3 -11,-21 4,1 10,-10Z">
<title>Culpeper</title></path>
<path fill="rgb(104.29499999999999,108.62999999999998,42.584999999999994)" d="M464,106l6,6 4,3 3,-1 6,4 -20,25 -4,-2 -20,-10 18,-24Z">
<title>Spotsylvania</title></path>
<path fill="rgb(93.84,106.845,54.315)" d="M459,141l4,2 22,19 2,6 3,1 9,6 4,3 -8,9 -2,-1 -8,-4 -4,-2 -10,-8 -7,-1 -13,-2Z">
<title>Hanover</title></path>
<path fill="rgb(95.115,106.58999999999999,53.55)" d="M498,152l1,-1 1,2 5,11 13,7 10,10 1,3 0,3 -1,1 -5,-5 -15,-3 -5,-2 -4,-3 -9,-6 -3,-1 -2,-6Z">
<title>King_William</title></path>
<path fill="rgb(80.83500000000001,99.19500000000001,74.97)" d="M498,152l8,-7 4,8 2,4 5,4 3,0 4,-1 3,1 3,4 1,2 7,12 -1,7 1,1 1,2 0,3 -1,1 -4,3 -2,-4 -4,-4 1,-1 0,-3 -1,-3 -10,-10 -13,-7 -5,-11 -1,-2Z">
<title>King_and_Queen</title></path>
<path fill="rgb(69.61500000000001,87.21000000000001,98.175)" d="M536,163l8,12 3,2 0,1 9,1 9,3 1,1 -1,0 -2,2 -1,0 -7,2 -17,-8 -7,-12Z">
<title>Middlesex</title></path>
<path fill="rgb(86.7,108.63,59.415000000000006)" d="M555,187l3,11 -1,0 -1,2 -1,2 1,1 4,4 2,3 1,0 -1,1 -5,2 -6,1 -12,-13 -5,-5 4,-3 1,-1 0,-3 -1,-2 -1,-1 1,-7Z">
<title>Gloucester</title></path>
<path fill="rgb(64.77,80.83500000000001,108.885)" d="M539,161l10,-5 14,15 3,4 1,2 -6,1 -10,-6 -4,-3Z">
<title>Lancaster</title></path>
<path fill="rgb(72.16499999999999,120.105,62.730000000000004)" d="M516,133l4,-4 5,6 4,5 1,1 9,3 10,12 -10,5 -10,-8Z">
<title>Richmond</title></path>
<path fill="rgb(87.46499999999999,98.93999999999998,68.59499999999998)" d="M506,125l10,8 13,20 7,10 -5,4 -1,-2 -3,-4 -3,-1 -4,1 -3,0 -5,-4 -2,-4 -4,-8 -4,-18Z">
<title>Essex</title></path>
<path fill="rgb(96.9,107.865,50.23499999999999)" d="M486,118l16,9 4,18 -8,7 -13,10 -22,-19 20,-25Z">
<title>Caroline</title></path>
<path fill="rgb(99.705,112.96499999999999,42.84)" d="M484,38l16,12 -7,3 -3,2 2,4 5,-2 3,3 -3,4 4,2 5,-2 -3,8 -3,7 -7,0 -24,-20zM482,57l-1,2 0,1 2,2 3,0 2,-1 0,-3 -1,-1 -2,0Z">
<title>Fairfax</title></path>
<path fill="rgb(111.43500000000002,111.68999999999998,31.62)" d="M460,50l9,9 24,20 -6,14 -17,-5 -2,-4 -12,-23 -1,-1zM472,66l-2,1 -2,4 0,2 2,1 4,-3 0,-3 1,0 2,-1 0,-1 -1,0 -2,-1 -1,-1 0,1zM476,69l1,1 1,-2 0,-1 -1,0 -1,1 0,1Z">
<title>Prince_William</title></path>
<path fill="rgb(112.455,110.16000000000001,32.64)" d="M464,106l-2,-4 8,-14 17,5 2,15 -3,10 -3,0 -6,-4 0,-3 -1,-1 -1,-1 -2,-1 -1,1 -2,1 0,2Z">
<title>Stafford</title></path>
<path fill="rgb(103.53,108.885,42.84)" d="M489,108l22,6 -5,11 -4,2 -16,-9Z">
<title>King_George</title></path>
<path fill="rgb(82.875,94.095,78.285)" d="M511,114l2,6 7,4 3,1 16,0 1,1 5,7 1,0 1,3 0,1 -8,7 -9,-3 -1,-1 -4,-5 -5,-6 -4,4 -10,-8Z">
<title>Westmoreland</title></path>
<path fill="rgb(63.495,82.11,109.14)" d="M547,137l1,1 7,5 2,1 3,0 0,1 1,0 6,3 2,2 -1,6 -3,14 -2,1 -14,-15 -10,-12Z">
<title>Northumberland</title></path>
<path fill="rgb(71.655,89.76,93.84)" d="M555,187l7,-2 4,2 1,0 1,3 1,3 1,4 0,3 -2,6 -3,-2 -7,-6Z">
<title>Mathews</title></path>
<path fill="rgb(127.5,91.28999999999999,35.955)" d="M576,243l1,8 -4,1 -4,2 -5,-9Z">
<title>Norfolk.City</title></path>
<path fill="rgb(86.19,106.845,61.71)" d="M520,267l5,-28 14,-15 14,21 -3,1 -28,27 -1,0Z">
<title>Isle_of_Wight</title></path>
<path fill="rgb(101.49,106.58999999999999,46.92)" d="M559,247l-1,3 -4,31 -4,0 -29,2 1,-10 28,-27 3,-1Z">
<title>Suffolk.City</title></path>
<path fill="rgb(104.55,107.865,43.095)" d="M569,254l4,-2 9,28 -14,1 -14,0 4,-31 3,6Z">
<title>Chesapeake.City</title></path>
<path fill="rgb(107.865,104.55,42.84)" d="M576,243l14,0 1,1 0,1 10,31 1,4 -20,0 -9,-28 4,-1Z">
<title>Virginia_Beach.City</title></path>
<path fill="rgb(112.71000000000001,116.28,25.5)" d="M474,64l-1,0 0,1 -1,1 1,1 1,1 1,0 0,-1 1,1 0,1 1,1 1,-2 0,-1 -1,0 0,-1 -1,0Z">
<title>Manassas_Park.City</title></path>
</svg>

