<?xml version="1.0" encoding="UTF-8" standalone="no"?>
<svg
xmlns="http://www.w3.org/2000/svg"
version="1.0"
width="644.925" height="286.616"
>
<rect width="100%" height="100%" fill="white"/>
<path fill="rgb(85.680000,96.900000,72.930000)"  d="M615,138l29,-4 -4,7 -7,8 -3,0 0,1 -1,0 -1,1 0,1 -2,2 -2,3 -4,10 0,1 -6,21 0,1 -4,1 -7,-1 0,-1 1,-1 1,-4 -4,-2 -8,0 0,-1 1,-4 1,-2 8,-14 4,-4 1,-2 1,0 2,-4 0,-1 1,-7Z">
<title>Accomack</title></path>
<path fill="rgb(101.745000,97.665000,56.610000)"  d="M593,182l8,0 4,2 -1,4 -1,1 0,1 7,1 4,-1 0,2 -9,24 -1,2 -1,1 -5,5 -1,1 -5,-1 -3,-8 -2,-5 0,-3 1,-3 0,-1 2,-10 2,-7 0,-2Z">
<title>Northampton</title></path>
<path fill="rgb(80.325000,96.645000,78.030000)"  d="M134,186l3,2 -1,1 -4,2 0,2 5,10 5,7 1,1 8,4 -2,4 -9,4 -2,1 -7,2 -1,1 -1,1 0,1 -1,3 0,1 -4,1 -5,0 -12,-26Z">
<title>Buchanan</title></path>
<path fill="rgb(85.170000,105.825000,64.005000)"  d="M180,206l10,11 -3,6 -11,11 -3,4 -6,1 -4,1 -10,2 -6,1 -9,-19 2,-1 9,-4 2,-4 4,4 10,0 3,-3 8,-5Z">
<title>Tazewell</title></path>
<path fill="rgb(90.270000,99.450000,65.280000)"  d="M178,244l8,19 -26,11 -1,1 -6,-16 -10,-14 4,-2 6,-1 10,-2 4,-1 6,-1Z">
<title>Smyth</title></path>
<path fill="rgb(89.760000,100.980000,64.005000)"  d="M118,277l-8,0 5,-7 3,-1 2,0 1,1 1,2 -1,2Z">
<title>Bristol.City</title></path>
<path fill="rgb(101.490000,118.575000,34.935000)"  d="M143,245l10,14 6,16 1,-1 -4,3 -14,-1 -7,0 -1,2 -16,-1 3,-3 1,-2 -1,-2 -1,-1 -2,0 -3,1 -5,7 -4,0 -2,-11 17,-11 12,-4Z">
<title>Washington</title></path>
<path fill="rgb(84.915000,104.805000,65.280000)"  d="M138,224l9,19 -4,2 -10,6 -12,4 -17,11 -5,-17 6,-9 14,-6 5,0 4,-1 0,-1 1,-3 0,-1 1,-1 1,-1Z">
<title>Russell</title></path>
<path fill="rgb(75.480000,105.315000,73.950000)"  d="M83,238l2,1 0,3 -2,3 -3,0 -2,-2 1,-2 1,-2 2,-1Z">
<title>Norton.City</title></path>
<path fill="rgb(84.405000,104.550000,66.045000)"  d="M88,217l1,8 4,8 1,2 8,7 1,-1 2,-1 -6,9 -11,-1 -6,0 -1,1 -9,4 -1,2 -1,1 -8,-10 1,-7 24,-21zM83,238l-1,0 -2,1 -1,2 -1,2 2,2 3,0 2,-3 0,-3 -2,-1Z">
<title>Wise</title></path>
<path fill="rgb(74.970000,111.690000,68.595000)"  d="M107,208l12,26 -14,6 -2,1 -1,1 -8,-7 -1,-2 -4,-8 -1,-8 4,-1 12,-5Z">
<title>Dickenson</title></path>
<path fill="rgb(82.110000,104.040000,68.595000)"  d="M70,256l1,-1 1,-2 9,-4 1,-1 6,0 11,1 5,17 2,11 -24,-1 -17,0 -12,-1 3,-8 4,-2Z">
<title>Scott</title></path>
<path fill="rgb(88.485000,101.235000,65.280000)"  d="M70,256l-10,9 -4,2 -3,8 -37,-2 -16,-1 17,-5 8,-3 18,-6 17,-10 2,-2Z">
<title>Lee</title></path>
<path fill="rgb(80.325000,109.140000,66.300000)"  d="M190,217l19,-6 9,15 -4,7 -10,2 -7,2 -7,-2 -5,3 -7,6 -5,-6 3,-4 11,-11Z">
<title>Bland</title></path>
<path fill="rgb(87.465000,108.375000,59.415000)"  d="M203,259l7,11 0,1 -1,2 0,1 1,1 1,2 3,0 0,-2 5,8 -5,0 -35,-2 -25,-2 2,-2 4,-3 26,-11Z">
<title>Grayson</title></path>
<path fill="rgb(92.055000,101.235000,61.965000)"  d="M210,270l1,0 1,-1 3,0 2,1 -1,2 -2,2 0,3 -3,0 -1,-2 -1,-1 0,-1 1,-2Z">
<title>Galax.City</title></path>
<path fill="rgb(96.900000,107.865000,50.235000)"  d="M227,252l-24,7 -17,4 -8,-19 7,-6 5,-3 7,2 7,-2 10,-2Z">
<title>Wythe</title></path>
<path fill="rgb(79.815000,102.510000,72.420000)"  d="M218,198l7,6 10,-6 1,0 9,-5 3,6 3,11 -14,6 -19,10 -9,-15 9,-13Z">
<title>Giles</title></path>
<path fill="rgb(73.950000,107.100000,74.205000)"  d="M239,232l0,1 -1,-2 -1,-2 0,-1 1,-1 1,-1 2,-1 4,0 1,2 -1,1 -4,3Z">
<title>Radford.City</title></path>
<path fill="rgb(90.270000,91.800000,73.440000)"  d="M237,216l5,9 -1,0 -2,1 -1,1 -1,1 0,1 1,2 1,2 0,-1 3,10 -7,5 -8,5 -13,-19 4,-7Z">
<title>Pulaski</title></path>
<path fill="rgb(100.980000,107.610000,46.410000)"  d="M497,57l-5,2 -2,-4 3,-2 0,1Z">
<title>Falls_Church.City</title></path>
<path fill="rgb(83.895000,107.100000,64.005000)"  d="M500,50l2,3 3,2 2,4 -6,0 -1,1 -3,-3 -4,-3 0,-1Z">
<title>Arlington</title></path>
<path fill="rgb(77.775000,106.845000,70.890000)"  d="M235,247l13,22 -4,5 -1,1 -2,0 -2,-2 -2,0 -1,4 -1,2 1,4 -17,0 -5,-8 0,-1 2,-2 1,-2 -2,-1 -3,0 -1,1 -1,0 -7,-11 24,-7Z">
<title>Carroll</title></path>
<path fill="rgb(100.215000,106.080000,49.215000)"  d="M305,285l-26,0 0,-11 -1,-1 -1,-1 -1,-4 0,-6 1,-1 3,0 6,-3 13,3 4,-1 8,-5zM292,268l-2,4 1,1 4,3 2,0 1,-2 -1,-5 -4,-1Z">
<title>Henry</title></path>
<path fill="rgb(91.290000,99.705000,64.005000)"  d="M265,253l15,8 -3,0 -1,1 0,6 1,4 1,1 1,1 0,11 -30,-1 -13,-1 -1,-4 1,-2 1,-4 2,0 2,2 2,0 1,-1 4,-5Z">
<title>Patrick</title></path>
<path fill="rgb(85.425000,102.510000,67.065000)"  d="M274,229l-9,24 -17,16 -13,-22 7,-5 5,-1 6,-1 4,-2 5,-5 8,-3Z">
<title>Floyd</title></path>
<path fill="rgb(91.290000,106.335000,57.375000)"  d="M264,207l1,6 4,5 1,10 0,2 -8,3 -5,5 -4,2 -6,1 -5,1 -3,-10 2,-1 4,-3 1,-1 -1,-2 -3,0 -5,-9 14,-6Z">
<title>Montgomery</title></path>
<path fill="rgb(87.465000,98.940000,68.595000)"  d="M282,210l0,1 -1,4 1,1 -5,-1 0,-5Z">
<title>Salem.City</title></path>
<path fill="rgb(99.705000,112.965000,42.840000)"  d="M295,219l20,18 -4,18 -8,5 -4,1 -13,-3 -6,3 -15,-8 9,-24 7,-5 4,3 2,0 3,-2Z">
<title>Franklin</title></path>
<path fill="rgb(94.350000,105.825000,54.825000)"  d="M278,200l17,11 0,8 -5,6 -3,2 -2,0 -4,-3 -7,5 -4,1 0,-2 -1,-10 -4,-5 -1,-6 1,-1 3,-2 5,-1zM282,210l-5,0 0,5 5,1 0,1 5,3 1,0 1,-1 2,-2 2,-5 0,-1 -2,-1 -5,-2 -3,2Z">
<title>Roanoke</title></path>
<path fill="rgb(80.835000,99.705000,74.205000)"  d="M327,181l19,14 -6,1 0,10 -14,29 -11,2 -20,-18 0,-8 5,-4 0,-6 7,-7 3,0 1,1 1,1 3,1 1,0 4,-6 2,-2zM318,206l-1,0 0,2 1,2 1,1 3,0 2,-4 -2,-2 -3,0Z">
<title>Bedford</title></path>
<path fill="rgb(86.955000,107.355000,60.180000)"  d="M280,148l4,-1 5,1 3,5 1,1 14,5 4,-3 -2,10 -11,-3 -2,2 -1,1 -1,2 -3,3 -7,6 -2,1 -1,-1 -8,6 -5,-2 -1,-2 -6,-6zM283,162l-1,5 1,1 1,1 3,-2 0,-5 -2,-1Z">
<title>Alleghany</title></path>
<path fill="rgb(85.170000,98.175000,71.145000)"  d="M282,178l-1,0 1,2 4,8 -6,10 -2,2 -5,3 -5,1 -3,2 -1,1 -13,3 -3,-11 2,-1 10,-6 -1,-4 3,-4 5,-5 1,2 5,2 8,-6Z">
<title>Craig</title></path>
<path fill="rgb(96.390000,106.845000,52.275000)"  d="M309,166l13,23 -2,2 -4,6 -1,0 -3,-1 -1,-1 -1,-1 -3,0 -7,7 0,6 -5,4 -17,-11 2,-2 6,-10 -4,-8 -1,-2 1,0 2,-1 7,-6 3,-3 1,-2 1,-1 2,-2Z">
<title>Botetourt</title></path>
<path fill="rgb(85.425000,100.470000,69.105000)"  d="M347,163l3,-1 4,3 7,8 1,3 6,12 2,0 -11,11 -5,3 -8,-7 -19,-14 1,0 1,-1 3,-2 2,-2 3,-7 1,-3 1,-1 2,-3 1,0Z">
<title>Amherst</title></path>
<path fill="rgb(86.700000,108.630000,59.415000)"  d="M323,135l11,8 12,9 2,2 -1,9 -5,-1 -1,0 -2,3 -1,1 -1,3 -3,7 -2,2 -3,2 -1,1 -1,0 -5,8 -13,-23 2,-10zM327,163l1,-2 -3,-1 -2,1 -1,1 0,3 1,1 2,0zM329,166l-1,0 0,5 1,2 1,0 1,-1 1,-1 2,-3 0,-3 -2,-1 -2,2Z">
<title>Rockbridge</title></path>
<path fill="rgb(74.715000,112.455000,67.830000)"  d="M300,117l3,3 3,2 11,2 4,2 2,9 -12,21 -4,3 -14,-5 -1,-1 -3,-5 -5,-1 -4,1 7,-11Z">
<title>Bath</title></path>
<path fill="rgb(77.265000,101.745000,76.245000)"  d="M336,103l-1,1 -6,11 0,2 -2,4 -6,5 -4,-2 -11,-2 -3,-2 -3,-3 -1,-3 0,-1 6,-6 3,-7 1,-6 2,-8 7,3 1,1 1,1 4,8Z">
<title>Highland</title></path>
<path fill="rgb(95.880000,102.765000,56.355000)"  d="M398,102l3,-5 12,19 -6,9 -22,-9Z">
<title>Greene</title></path>
<path fill="rgb(80.835000,121.635000,53.040000)"  d="M355,69l14,0 17,15 -3,9 5,4 5,4 1,0 4,1 -13,14 -6,7 -12,-10 -10,-6 -14,-10zM369,96l-2,3 -1,2 0,4 2,0 5,-3 0,-1 -1,-2Z">
<title>Rockingham</title></path>
<path fill="rgb(85.680000,95.625000,73.440000)"  d="M336,103l7,-6 14,10 10,6 12,10 -1,3 -2,4 1,4 -1,1 -1,2 -3,2 -8,10 -3,4 -6,-1 -2,0 -5,2 -2,-2 -12,-9 -11,-8 -2,-9 6,-5 2,-4 0,-2 6,-11zM357,124l-5,1 0,2 -1,1 1,2 1,1 3,0 2,-1 0,-1 1,-2 -1,-1 0,-2 -1,0zM366,133l-2,1 -2,2 0,1 3,2 3,0 1,-1 0,-5 -2,0Z">
<title>Augusta</title></path>
<path fill="rgb(93.840000,106.845000,54.315000)"  d="M372,139l15,30 -14,18 -3,1 -2,0 -6,-12 -1,-3 -7,-8 -4,-3 -3,1 1,-9 5,-2 2,0 6,1 3,-4Z">
<title>Nelson</title></path>
<path fill="rgb(99.450000,106.590000,48.960000)"  d="M418,173l-1,5 -7,14 -9,15 -10,-5 -18,-15 14,-18 2,-2 8,0 1,-1 0,-3Z">
<title>Buckingham</title></path>
<path fill="rgb(82.620000,100.470000,71.400000)"  d="M391,202l-7,14 -10,5 -15,-22 11,-11 3,-1Z">
<title>Appomattox</title></path>
<path fill="rgb(54.060000,80.070000,121.380000)"  d="M354,202l5,-3 15,22 -6,18 -15,-4 -2,-2 -10,-5 -7,0 -2,2 -6,5 14,-29 5,4Z">
<title>Campbell</title></path>
<path fill="rgb(86.190000,106.845000,61.710000)"  d="M353,235l15,4 13,6 4,12 -1,9 2,3 1,1 -6,15 -5,0 -26,1 -6,0Z">
<title>Halifax</title></path>
<path fill="rgb(85.170000,92.820000,77.010000)"  d="M326,235l6,-5 2,-2 7,0 10,5 2,2 -9,51 -10,0 3,-3 0,-1 -3,-6 -10,0 -3,2 -1,1 0,1 3,2 1,4 -3,0 -16,-1 6,-30 4,-18Z">
<title>Pittsylvania</title></path>
<path fill="rgb(80.835000,99.195000,74.970000)"  d="M292,268l1,0 4,1 1,5 -1,2 -2,0 -4,-3 -1,-1 2,-4Z">
<title>Martinsville.City</title></path>
<path fill="rgb(103.530000,108.885000,42.840000)"  d="M334,286l-10,0 -1,-4 -3,-2 0,-1 1,-1 3,-2 10,0 3,6 0,1Z">
<title>Danville.City</title></path>
<path fill="rgb(95.115000,106.590000,53.550000)"  d="M354,202l-9,8 -5,-4 0,-10 6,-1Z">
<title>Lynchburg.City</title></path>
<path fill="rgb(64.770000,80.835000,108.885000)"  d="M318,206l1,-1 3,0 2,2 -2,4 -3,0 -1,-1 -1,-2 0,-2Z">
<title>Bedford</title></path>
<path fill="rgb(82.620000,109.905000,61.965000)"  d="M282,210l1,0 3,-2 5,2 2,1 0,1 -2,5 -2,2 -1,1 -1,0 -5,-3 0,-1 -1,-1 1,-4Z">
<title>Roanoke.City</title></path>
<path fill="rgb(106.590000,118.830000,29.325000)"  d="M329,166l1,0 2,-2 2,1 0,3 -2,3 -1,1 -1,1 -1,0 -1,-2 0,-5Z">
<title>Buena_Vista.City</title></path>
<path fill="rgb(85.935000,106.590000,62.730000)"  d="M283,162l2,-1 2,1 0,5 -3,2 -1,-1 -1,-1Z">
<title>Covington.City</title></path>
<path fill="rgb(82.365000,103.275000,69.360000)"  d="M327,163l-2,3 -2,0 -1,-1 0,-3 1,-1 2,-1 3,1Z">
<title>Lexington.City</title></path>
<path fill="rgb(90.270000,93.585000,71.145000)"  d="M366,133l3,0 0,5 -1,1 -3,0 -3,-2 0,-1 2,-2 2,-1Z">
<title>Waynesboro.City</title></path>
<path fill="rgb(71.655000,89.760000,93.840000)"  d="M357,124l1,0 0,2 1,1 -1,2 0,1 -2,1 -3,0 -1,-1 -1,-2 1,-1 0,-2Z">
<title>Staunton.City</title></path>
<path fill="rgb(80.070000,97.920000,77.010000)"  d="M399,136l1,0 2,1 0,1 -1,3 -1,1 -3,1 -1,-1 -1,-1 0,-1 1,-1 1,-2Z">
<title>Charlottesville.City</title></path>
<path fill="rgb(69.615000,87.210000,98.175000)"  d="M369,96l3,3 1,2 0,1 -5,3 -2,0 0,-4 1,-2 2,-3Z">
<title>Harrisonburg.City</title></path>
<path fill="rgb(135.915000,79.560000,39.270000)"  d="M385,116l22,9 13,5 -8,12 -14,21 0,3 -1,1 -8,0 -2,2 -15,-30 3,-2 1,-2 1,-1 -1,-4 2,-4 1,-3zM399,136l-2,1 -1,2 -1,1 0,1 1,1 1,1 3,-1 1,-1 1,-3 0,-1 -2,-1Z">
<title>Albemarle</title></path>
<path fill="rgb(81.855000,89.760000,83.640000)"  d="M412,142l19,10 -7,15 -6,6 -20,-10Z">
<title>Fluvanna</title></path>
<path fill="rgb(86.700000,111.945000,56.610000)"  d="M418,173l6,-6 6,9 -4,20 -8,8 -17,3 9,-15 7,-14Z">
<title>Cumberland</title></path>
<path fill="rgb(81.345000,90.015000,83.640000)"  d="M418,204l1,7 -1,18 -15,4 -19,-17 7,-14 10,5Z">
<title>Prince_Edward</title></path>
<path fill="rgb(63.495000,82.110000,109.140000)"  d="M374,221l10,-5 19,17 -4,18 -12,19 -1,-1 -2,-3 1,-9 -4,-12 -13,-6Z">
<title>Charlotte</title></path>
<path fill="rgb(90.270000,103.275000,61.200000)"  d="M435,262l-1,23 -53,0 6,-15 12,-19Z">
<title>Mecklenburg</title></path>
<path fill="rgb(89.250000,97.920000,67.575000)"  d="M481,217l-1,-3 0,-2 2,-2 1,0 1,1 0,5 -2,0 -1,1Z">
<title>Colonial_Heights.City</title></path>
<path fill="rgb(85.425000,101.490000,67.830000)"  d="M418,229l19,9 -2,24 -36,-11 4,-18Z">
<title>Lunenburg</title></path>
<path fill="rgb(73.185000,103.020000,79.050000)"  d="M487,209l4,0 2,1 1,1 -1,2 -3,2 -2,-2Z">
<title>Hopewell.City</title></path>
<path fill="rgb(82.875000,103.785000,68.085000)"  d="M507,59l-1,5 -5,2 -4,-2 3,-4 1,-1Z">
<title>Alexandria.City</title></path>
<path fill="rgb(84.405000,115.260000,55.080000)"  d="M405,62l8,7 -4,13 -8,15 -3,5 -4,-1 -1,0 -5,-4 -5,-4 3,-9 4,-8 3,-5 3,1 3,-2Z">
<title>Page</title></path>
<path fill="rgb(125.205000,76.755000,52.785000)"  d="M411,45l-6,17 -6,8 -3,2 -3,-1 -3,5 -4,8 -17,-15 5,-9 1,-3 1,-1 4,-3 1,1 8,-5 3,-5 1,0 0,-4Z">
<title>Shenandoah</title></path>
<path fill="rgb(96.900000,114.495000,43.350000)"  d="M431,19l16,13 -10,12 -3,3 -11,-5Z">
<title>Clarke</title></path>
<path fill="rgb(111.435000,111.690000,31.620000)"  d="M420,25l2,0 3,2 -5,7 -2,-2 0,-6 1,-2Z">
<title>Winchester.City</title></path>
<path fill="rgb(79.815000,105.570000,69.105000)"  d="M408,0l8,7 15,12 -8,23 -12,3 -18,-5 3,-3 1,-1 3,-2 1,-1 2,-3 0,-1 4,-18zM420,25l-1,-1 -1,2 0,6 2,2 5,-7 -3,-2Z">
<title>Frederick</title></path>
<path fill="rgb(75.225000,96.135000,83.385000)"  d="M423,42l11,5 -10,12 -11,10 -8,-7 6,-17Z">
<title>Warren</title></path>
<path fill="rgb(72.165000,120.105000,62.730000)"  d="M413,69l11,-10 4,3 5,7 1,3 1,1 3,2 1,0 -8,7 -10,10 -4,-1 -8,-9Z">
<title>Rappahannock</title></path>
<path fill="rgb(85.680000,102.765000,66.300000)"  d="M409,82l8,9 11,21 -15,4 -12,-19Z">
<title>Madison</title></path>
<path fill="rgb(77.010000,97.665000,80.325000)"  d="M413,116l15,-4 7,-3 7,-3 4,-1 7,0 3,1 1,1 -18,24 -19,-1 -13,-5Z">
<title>Orange</title></path>
<path fill="rgb(95.115000,99.960000,59.925000)"  d="M420,130l19,1 20,10 -8,28 -10,-9 -1,-2 -6,-5 -3,-1 -19,-10Z">
<title>Louisa</title></path>
<path fill="rgb(83.895000,106.845000,64.005000)"  d="M464,171l-2,14 -4,-3 -8,-3 -10,-1 0,1 -3,0 -6,-2 -1,-1 -6,-9 7,-15 3,1 6,5 1,2 10,9Z">
<title>Goochland</title></path>
<path fill="rgb(80.325000,102.510000,71.910000)"  d="M462,185l-15,14 -1,-3 -2,-2 -2,-1 -5,0 -3,1 -3,2 -3,1 -1,0 -1,-1 4,-20 1,1 6,2 3,0 0,-1 10,1 8,3Z">
<title>Powhatan</title></path>
<path fill="rgb(86.700000,102.510000,66.045000)"  d="M426,196l1,1 1,0 3,-1 3,-2 3,-1 5,0 2,1 2,2 1,3 -1,0 0,5 9,9 0,1 1,0 1,-1 0,-1 1,-1 1,-1 3,1 1,3 -11,7 -33,-10 -1,-7Z">
<title>Amelia</title></path>
<path fill="rgb(84.405000,102.000000,68.085000)"  d="M418,229l1,-18 33,10 -7,20 -8,-3Z">
<title>Nottoway</title></path>
<path fill="rgb(82.365000,110.160000,62.475000)"  d="M437,238l8,3 18,9 1,18 -8,16 -11,0 -11,1 1,-23Z">
<title>Brunswick</title></path>
<path fill="rgb(104.295000,108.630000,42.585000)"  d="M463,214l16,4 -1,2 2,2 3,1 0,17 -17,11 -3,-1 -18,-9 7,-20Z">
<title>Dinwiddie</title></path>
<path fill="rgb(112.455000,110.160000,32.640000)"  d="M475,268l0,4 -4,2 -1,-1 -1,-3 0,-1 1,-1 3,-1 1,0Z">
<title>Emporia.City</title></path>
<path fill="rgb(83.130000,107.610000,64.770000)"  d="M481,268l11,15 -36,1 8,-16 -1,-18 3,1 5,4 6,12zM475,268l-1,-1 -1,0 -3,1 -1,1 0,1 1,3 1,1 4,-2 0,-1Z">
<title>Greensville</title></path>
<path fill="rgb(86.445000,119.085000,49.470000)"  d="M560,227l-1,-6 1,-1 0,-2 4,0 3,4 1,3Z">
<title>Poquoson.City</title></path>
<path fill="rgb(85.170000,104.550000,65.535000)"  d="M520,267l1,6 -4,0 -1,-2 -1,-3 1,-1 1,-1 1,1Z">
<title>Franklin.City</title></path>
<path fill="rgb(95.115000,108.120000,52.020000)"  d="M520,267l-2,0 -1,-1 -1,1 -1,1 1,3 1,2 5,0 -1,10 -29,0 -11,-15 36,-24 8,-5Z">
<title>Southampton</title></path>
<path fill="rgb(82.365000,103.275000,69.360000)"  d="M560,227l8,-2 3,9 -4,4 -7,1 -3,-11Z">
<title>Hampton.City</title></path>
<path fill="rgb(82.875000,94.095000,78.285000)"  d="M539,213l0,1 -2,1 -2,-1 -2,0 -1,-1 0,-5 2,-2 0,2 4,0 1,2Z">
<title>Williamsburg.City</title></path>
<path fill="rgb(96.390000,101.745000,57.375000)"  d="M544,217l13,11 3,11 -1,2 -1,0 -1,-1 -15,-14 0,-6Z">
<title>Newport_News.City</title></path>
<path fill="rgb(83.640000,103.785000,67.830000)"  d="M559,247l5,-2 5,9 -8,2 -3,-6Z">
<title>Portsmouth.City</title></path>
<path fill="rgb(100.470000,105.060000,49.980000)"  d="M534,207l5,-6 12,13 0,1 1,0 1,1 6,-1 1,0 0,5 -1,1 1,6 -3,1 -13,-11 -5,-4 0,-3 -1,-2 -4,0Z">
<title>York</title></path>
<path fill="rgb(89.505000,128.010000,37.740000)"  d="M532,192l2,4 5,5 -5,6 0,-1 -2,2 0,5 1,1 2,0 2,1 2,-1 0,-1 5,4 -2,3 -8,-3 -12,0 -2,-15Z">
<title>James_City</title></path>
<path fill="rgb(92.565000,96.900000,65.790000)"  d="M522,217l12,0 5,7 -14,15 -8,5 -1,-6 -6,-6 0,1 -2,-1 -6,-3 -1,-1 14,-14Z">
<title>Surry</title></path>
<path fill="rgb(115.770000,86.700000,52.020000)"  d="M501,228l1,1 6,3 2,1 0,-1 6,6 1,6 -36,24 -4,-1 -6,-12 -5,-4 17,-11Z">
<title>Sussex</title></path>
<path fill="rgb(128.520000,91.545000,34.680000)"  d="M491,209l1,-1 23,6 -14,14 -18,12 0,-17 3,1 2,-4 0,-2 -4,-3 3,-6 1,4 2,2 3,-2 1,-2 -1,-1 -2,-1Z">
<title>Prince_George</title></path>
<path fill="rgb(104.550000,107.865000,43.095000)"  d="M484,216l0,-1 4,3 0,2 -2,4 -3,-1 -3,-1 -2,-2 1,-2 2,-1 1,-1 2,0Z">
<title>Petersburg.City</title></path>
<path fill="rgb(94.860000,94.095000,66.045000)"  d="M464,171l7,1 10,8 4,2 8,4 2,1 4,4 -5,11 -14,-6 2,-6 1,-3 -2,-4 -2,-2 -3,0 -4,1 -5,3 -5,0Z">
<title>Henrico</title></path>
<path fill="rgb(92.055000,97.155000,66.045000)"  d="M462,185l5,0 2,5 3,6 8,0 14,6 -2,6 -1,1 -4,0 -3,6 0,-4 -1,-1 -1,0 -2,2 0,2 1,3 -2,1 -16,-4 -1,-3 -3,-1 -1,1 -1,1 0,1 -1,1 -1,0 0,-1 -9,-9 0,-5 1,0Z">
<title>Chesterfield</title></path>
<path fill="rgb(95.370000,92.310000,67.320000)"  d="M499,191l21,11 2,15 -7,-3 -23,-6 2,-6Z">
<title>Charles_City</title></path>
<path fill="rgb(94.350000,95.115000,65.535000)"  d="M503,178l5,2 15,3 5,5 4,4 -12,10 -21,-11 -4,-4Z">
<title>New_Kent</title></path>
<path fill="rgb(95.880000,106.080000,52.785000)"  d="M480,196l-8,0 -3,-6 -2,-5 5,-3 4,-1 3,0 2,2 2,4 -1,3Z">
<title>Richmond.City</title></path>
<path fill="rgb(96.135000,112.455000,46.665000)"  d="M477,114l-3,1 -4,-3 0,-2 2,-1 1,-1 2,1 1,1 1,1Z">
<title>Fredericksburg.City</title></path>
<path fill="rgb(98.175000,88.485000,68.340000)"  d="M482,57l5,0 1,1 0,3 -2,1 -3,0 -2,-2 0,-1Z">
<title>Fairfax.City</title></path>
<path fill="rgb(130.305000,88.485000,36.210000)"  d="M472,66l1,1 1,1 0,3 -4,3 -2,-1 0,-2 2,-4 2,-1Z">
<title>Manassas.City</title></path>
<path fill="rgb(83.130000,98.175000,73.695000)"  d="M454,13l3,1 17,9 -4,4 0,1 -1,1 0,3 1,1 4,4 3,1 7,0 -15,21 -9,-9 -23,-6 10,-12Z">
<title>Loudoun</title></path>
<path fill="rgb(108.375000,98.175000,48.450000)"  d="M437,44l23,6 -5,10 1,1 12,23 2,4 -8,14 -7,-1 -2,0 0,-1 -5,-9 -3,-8 -6,-8 -1,0 -3,-2 -1,-1 -1,-3 -5,-7 -4,-3 10,-12Z">
<title>Fauquier</title></path>
<path fill="rgb(155.040000,72.165000,27.795000)"  d="M439,75l6,8 3,8 5,9 0,1 2,0 7,1 2,4 -7,1 -1,-1 -3,-1 -7,0 -4,1 -7,3 -7,3 -11,-21 4,1 10,-10Z">
<title>Culpeper</title></path>
<path fill="rgb(102.510000,99.450000,53.040000)"  d="M464,106l6,6 4,3 3,-1 6,4 -20,25 -4,-2 -20,-10 18,-24Z">
<title>Spotsylvania</title></path>
<path fill="rgb(179.265000,35.445000,40.035000)"  d="M459,141l4,2 22,19 2,6 3,1 9,6 4,3 -8,9 -2,-1 -8,-4 -4,-2 -10,-8 -7,-1 -13,-2Z">
<title>Hanover</title></path>
<path fill="rgb(131.580000,76.245000,46.920000)"  d="M498,152l1,-1 1,2 5,11 13,7 10,10 1,3 0,3 -1,1 -5,-5 -15,-3 -5,-2 -4,-3 -9,-6 -3,-1 -2,-6Z">
<title>King_William</title></path>
<path fill="rgb(114.495000,109.905000,30.855000)"  d="M498,152l8,-7 4,8 2,4 5,4 3,0 4,-1 3,1 3,4 1,2 7,12 -1,7 1,1 1,2 0,3 -1,1 -4,3 -2,-4 -4,-4 1,-1 0,-3 -1,-3 -10,-10 -13,-7 -5,-11 -1,-2Z">
<title>King_and_Queen</title></path>
<path fill="rgb(112.710000,116.280000,25.500000)"  d="M536,163l8,12 3,2 0,1 9,1 9,3 1,1 -1,0 -2,2 -1,0 -7,2 -17,-8 -7,-12Z">
<title>Middlesex</title></path>
<path fill="rgb(91.290000,94.605000,69.105000)"  d="M555,187l3,11 -1,0 -1,2 -1,2 1,1 4,4 2,3 1,0 -1,1 -5,2 -6,1 -12,-13 -5,-5 4,-3 1,-1 0,-3 -1,-2 -1,-1 1,-7Z">
<title>Gloucester</title></path>
<path fill="rgb(116.535000,96.645000,42.075000)"  d="M539,161l10,-5 14,15 3,4 1,2 -6,1 -10,-6 -4,-3Z">
<title>Lancaster</title></path>
<path fill="rgb(127.500000,91.290000,35.955000)"  d="M516,133l4,-4 5,6 4,5 1,1 9,3 10,12 -10,5 -10,-8Z">
<title>Richmond</title></path>
<path fill="rgb(94.860000,100.215000,59.925000)"  d="M506,125l10,8 13,20 7,10 -5,4 -1,-2 -3,-4 -3,-1 -4,1 -3,0 -5,-4 -2,-4 -4,-8 -4,-18Z">
<title>Essex</title></path>
<path fill="rgb(101.490000,96.390000,57.375000)"  d="M486,118l16,9 4,18 -8,7 -13,10 -22,-19 20,-25Z">
<title>Caroline</title></path>
<path fill="rgb(90.270000,104.805000,59.925000)"  d="M484,38l16,12 -7,3 -3,2 2,4 5,-2 3,3 -3,4 4,2 5,-2 -3,8 -3,7 -7,0 -24,-20zM482,57l-1,2 0,1 2,2 3,0 2,-1 0,-3 -1,-1 -2,0Z">
<title>Fairfax</title></path>
<path fill="rgb(108.120000,96.390000,49.980000)"  d="M460,50l9,9 24,20 -6,14 -17,-5 -2,-4 -12,-23 -1,-1zM472,66l-2,1 -2,4 0,2 2,1 4,-3 0,-3 1,0 2,-1 0,-1 -1,0 -2,-1 -1,-1 0,1zM476,69l1,1 1,-2 0,-1 -1,0 -1,1 0,1Z">
<title>Prince_William</title></path>
<path fill="rgb(165.750000,59.670000,29.325000)"  d="M464,106l-2,-4 8,-14 17,5 2,15 -3,10 -3,0 -6,-4 0,-3 -1,-1 -1,-1 -2,-1 -1,1 -2,1 0,2Z">
<title>Stafford</title></path>
<path fill="rgb(113.985000,97.665000,43.860000)"  d="M489,108l22,6 -5,11 -4,2 -16,-9Z">
<title>King_George</title></path>
<path fill="rgb(98.430000,102.000000,54.825000)"  d="M511,114l2,6 7,4 3,1 16,0 1,1 5,7 1,0 1,3 0,1 -8,7 -9,-3 -1,-1 -4,-5 -5,-6 -4,4 -10,-8Z">
<title>Westmoreland</title></path>
<path fill="rgb(98.430000,95.880000,60.690000)"  d="M547,137l1,1 7,5 2,1 3,0 0,1 1,0 6,3 2,2 -1,6 -3,14 -2,1 -14,-15 -10,-12Z">
<title>Northumberland</title></path>
<path fill="rgb(91.035000,97.410000,66.555000)"  d="M555,187l7,-2 4,2 1,0 1,3 1,3 1,4 0,3 -2,6 -3,-2 -7,-6Z">
<title>Mathews</title></path>
<path fill="rgb(101.490000,106.590000,46.920000)"  d="M576,243l1,8 -4,1 -4,2 -5,-9Z">
<title>Norfolk.City</title></path>
<path fill="rgb(107.865000,104.550000,42.840000)"  d="M520,267l5,-28 14,-15 14,21 -3,1 -28,27 -1,0Z">
<title>Isle_of_Wight</title></path>
<path fill="rgb(96.135000,100.980000,57.885000)"  d="M559,247l-1,3 -4,31 -4,0 -29,2 1,-10 28,-27 3,-1Z">
<title>Suffolk.City</title></path>
<path fill="rgb(146.625000,60.180000,48.450000)"  d="M569,254l4,-2 9,28 -14,1 -14,0 4,-31 3,6Z">
<title>Chesapeake.City</title></path>
<path fill="rgb(106.590000,96.645000,51.510000)"  d="M576,243l14,0 1,1 0,1 10,31 1,4 -20,0 -9,-28 4,-1Z">
<title>Virginia_Beach.City</title></path>
<path fill="rgb(0.000000,0.000000,0.000000)"  d="M474,64l-1,0 0,1 -1,1 1,1 1,1 1,0 0,-1 1,1 0,1 1,1 1,-2 0,-1 -1,0 0,-1 -1,0Z">
<title>Manassas_Park.City</title></path>
</svg>
